# File produced by Open Asset Import Library (http://www.assimp.sf.net)
# (assimp v5.0.1588609223)

mtllib result.mtl

# 236 vertex positions
v  -358.05899 -52.703846 335.71075
v  -357.68771 -52.925632 313.97516
v  -340.3858 -53.329266 331.8934
v  -340.69168 -53.146549 349.80023
v  -155.58913 112.25294 515.78143
v  -154.58597 142.37143 515.49121
v  -175.84909 122.47363 515.33105
v  -176.64569 98.557182 515.56146
v  -327.93005 146.18872 312.45169
v  -351.03027 146.95425 312.04929
v  -334.47217 146.56796 329.19724
v  -315.26611 145.93149 329.5318
v  -157.03949 -35.882778 317.22864
v  -157.82776 -59.548862 317.45667
v  -179.63593 -36.239353 316.84631
v  -179.02563 -17.915997 316.66974
v  -360.70746 -51.121738 490.75726
v  -361.10336 -50.885227 513.93555
v  -360.26086 -34.338322 497.0502
v  -359.93118 -34.535275 477.74908
v  -152.17348 110.21254 315.82098
v  -151.17032 140.33102 315.53079
v  -152.55144 113.20523 343.21146
v  -153.27951 91.34584 343.42209
v  -154.74309 114.51445 471.51633
v  -155.03044 114.68611 488.33868
v  -168.95157 115.14745 488.09616
v  -168.66423 114.9758 471.27383
v  -160.45514 -33.842381 517.18909
v  -161.24341 -57.508457 517.41711
v  -159.86227 -30.382664 489.73642
v  -159.29019 -13.206295 489.57092
v  -154.19003 142.13492 492.3129
v  -158.19904 -59.327076 339.19226
v  -157.38327 -31.863544 344.60922
v  -157.65274 -31.702579 360.38446
v  -329.99881 100.32564 312.88434
v  -329.22211 123.64474 312.65967
v  -329.50006 123.81079 328.93259
v  -330.27676 100.49169 329.15726
v  -186.15396 141.49036 314.92139
v  -174.48145 118.51674 315.35522
v  -201.56735 119.41435 314.88336
v  -334.58749 -53.691158 314.37756
v  -334.37659 -31.111347 314.15076
v  -316.49133 -31.704052 314.46231
v  -352.03345 116.83577 312.33948
v  -206.38953 -16.852337 332.47086
v  -179.30359 -17.749947 332.94269
v  -179.91389 -36.073307 333.11923
v  -206.99982 -35.175694 332.6474
v  -334.65457 -30.945301 330.42368
v  -316.76932 -31.538006 330.73523
v  -174.7594 118.68279 331.62814
v  -201.84532 119.5804 331.15631
v  -171.00177 -14.064873 359.97647
v  -171.57387 -31.241238 360.14197
v  -171.30441 -31.402203 344.3667
v  -170.7323 -14.225845 344.2012
v  -166.47256 113.66656 342.96896
v  -167.20065 91.807175 343.17957
v  -173.78342 -29.921322 489.49393
v  -173.21132 -12.744957 489.32843
v  -339.76456 -34.676937 331.71368
v  -340.07043 -34.494221 349.62051
v  -338.00314 -51.650753 514.33795
v  -343.1998 -51.648281 496.63062
v  -324.1687 -52.278957 496.96213
v  -192.81139 -58.38953 316.84726
v  -175.73135 -58.785809 334.76163
v  -204.55258 -57.830692 334.25958
v  -160.84747 -57.744968 494.23877
v  -178.54532 -57.104824 499.49884
v  -178.21915 -57.299671 480.40341
v  -206.41913 -37.692226 479.72165
v  -177.59789 -38.647343 480.22369
v  -177.92407 -38.452496 499.31912
v  -206.7453 -37.497379 498.81708
v  -342.57852 -32.995953 496.4509
v  -323.54742 -33.626629 496.78241
v  -175.11008 -40.13348 334.58191
v  -203.93134 -39.178364 334.07986
v  -352.18195 130.59204 347.03439
v  -351.87277 130.40735 328.93463
v  -338.66177 129.96954 329.16479
v  -338.97095 130.15424 347.26453
v  -351.40155 147.17604 333.78485
v  -356.89948 -29.259556 313.74713
v  -357.41656 -36.037418 330.53836
v  -356.76019 -16.330112 330.34848
v  -355.4491 118.87617 512.29993
v  -354.44592 148.99466 512.0097
v  -354.71707 132.10645 495.44647
v  -355.55243 107.02606 495.68814
v  -339.8063 105.07385 347.5062
v  -339.49713 104.88916 329.40643
v  -347.04987 -34.776127 497.28033
v  -346.72018 -34.97308 477.97919
v  -344.20557 -36.475224 330.76849
v  -343.54919 -16.767918 330.57861
v  -341.50607 131.66864 495.67664
v  -342.34143 106.58826 495.91827
v  -336.98282 148.06776 476.1777
v  -337.31201 148.2644 495.44867
v  -339.70288 126.52434 490.59564
v  -339.37369 126.3277 471.32468
v  -354.05002 148.75815 488.83139
v  -151.5416 140.55281 337.26639
v  -168.30426 141.06126 332.09186
v  -168.61295 141.24567 350.16327
v  -189.56961 143.53076 514.88184
v  -171.1441 142.75771 498.34326
v  -200.23026 143.7216 497.83658
v  -200.08997 120.4695 344.80359
v  -171.00381 119.5056 345.31024
v  -170.69511 119.3212 327.23883
v  -199.78127 120.2851 326.73215
v  -173.53497 121.01764 493.49023
v  -202.62112 121.98154 492.98358
v  -336.86304 124.8279 324.34421
v  -317.65698 124.19142 324.67877
v  -316.2103 127.12511 512.88599
v  -334.55371 127.733 512.56647
v  -334.9928 129.84239 491.16135
v  -316.72046 127.10136 491.50143
v  -196.22705 -56.349125 516.80768
v  -181.13562 -36.246799 516.86035
v  -208.91539 -35.326199 516.3764
v  -331.3457 148.22913 512.41211
v  -360.31512 -27.219143 513.70752
v  -339.84024 -30.987431 514.09576
v  -339.21429 -12.194683 513.91467
v  -204.93561 99.454041 493.69302
v  -177.08478 100.66658 494.15637
v  -176.28819 124.58302 493.92593
v  -204.13901 123.3705 493.46259
v  -340.27936 -28.87804 492.69061
v  -339.65341 -10.0853 492.50955
v  -181.57472 -34.137409 495.45523
v  -209.35449 -33.216801 494.97131
v  -180.50969 -17.454052 516.67926
v  -180.94879 -15.344666 495.27417
v  -335.35031 103.81655 512.79688
v  -335.7894 105.92594 491.39178
v  -208.72856 -14.424065 494.79025
v  -359.60449 -14.631016 496.86032
v  -346.39349 -15.068821 497.09045
v  -352.70813 105.32697 329.1763
v  -343.85837 -16.583225 348.67838
v  -155.75851 92.826721 488.54929
v  -169.67966 93.288063 488.30679
v  -156.81117 -14.687183 344.44373
v  -166.74203 113.82753 358.7442
v  -167.47011 91.968147 358.95483
v  -175.25813 95.197632 315.5799
v  -175.5361 95.363686 331.85281
v  -202.62202 96.261292 331.38098
v  -333.7663 -12.787991 313.97418
v  -334.04425 -12.621941 330.24713
v  -311.61484 123.21808 329.24414
v  -312.39151 99.898987 329.46881
v  -321.31 -10.693188 492.8291
v  -317.51703 103.18492 491.73187
v  -321.49683 -31.595318 514.41528
v  -321.93594 -29.485928 493.01016
v  -203.62886 123.39423 514.84711
v  -197.39041 142.02516 331.58517
v  -318.10599 147.62793 495.7832
v  -320.49683 125.88786 490.93021
v  -317.9657 124.37582 342.75021
v  -321.35471 -53.959942 332.22491
v  -320.73346 -35.307613 332.0452
v  -207.36656 -56.149708 498.9968
v  -323.22125 -33.821476 477.68698
v  -311.33685 123.05203 312.97122
v  -206.72186 -35.34174 316.37445
v  -316.15903 -13.214645 330.55869
v  -344.51477 -36.290531 348.86826
v  -342.25235 -33.1908 477.35547
v  -337.17172 125.0123 342.41565
v  -329.97321 100.71996 312.06201
v  -329.1965 124.03906 311.83731
v  -311.31128 123.44635 312.14886
v  -179.00003 -17.521679 315.84741
v  -179.61034 -35.845036 316.02396
v  -206.69626 -34.94743 315.55212
v  -320.16766 125.69122 471.65924
v  -321.03934 -35.124897 349.95203
v  -172.92397 -12.916615 472.50607
v  -169.3923 93.116409 471.48444
v  -346.06378 -15.26577 477.78931
v  -204.23721 -38.995647 351.98669
v  -202.29193 121.7849 473.71262
v  -342.01172 106.39131 476.61713
v  -170.81491 142.56107 479.07233
v  -173.20578 120.821 474.2193
v  -334.78085 146.75237 347.26868
v  -357.72577 -35.852726 348.63812
v  -341.17639 131.47168 476.37549
v  -354.38739 131.90948 476.14536
v  -176.03723 -58.603092 352.66849
v  -175.41595 -39.950764 352.48877
v  -342.8736 -51.843128 477.53519
v  -159.57492 -30.554317 472.91409
v  -173.49606 -30.092976 472.67157
v  -152.82089 113.3662 358.98669
v  -337.28702 149.01437 495.44144
v  -336.95786 148.81773 476.17047
v  -318.08099 148.3779 495.776
v  -168.58797 141.99564 350.15607
v  -168.27927 141.81123 332.08463
v  -197.36542 142.77513 331.57794
v  -157.03156 -31.723164 360.39529
v  -155.13733 92.806137 488.56012
v  -156.76208 -31.884129 344.62003
v  -156.18999 -14.707767 344.45453
v  -154.1219 114.49387 471.52716
v  -154.40926 114.66553 488.34949
v  -178.26166 -58.704823 480.06631
v  -321.39722 -55.365093 331.88779
v  -178.58784 -58.509975 499.16174
v  -358.11395 -16.285252 330.32489
v  -355.74115 131.95435 476.12177
v  -175.87526 122.29199 516.43463
v  -176.67184 98.375542 516.66504
v  -340.42834 -54.734417 331.55627
v  -340.73419 -54.551693 349.46313
v  -207.40909 -57.554859 498.65967
v  -203.65503 123.2126 515.95068
v  -339.24048 -12.376324 515.01825
v  -339.86639 -31.169071 515.19928
v  -321.52301 -31.776958 515.51886
v  -356.90619 107.07092 495.66455
v  -356.07083 132.15131 495.42291
v  -358.77036 -35.992558 330.51477
v  -359.07953 -35.807865 348.61453

# 0 UV coordinates

# 98 vertex normals
vn -3.3287179 -99.939941 0.96293408
vn -1.7078253 1.0202049 99.980209
vn 3.3287179 99.939941 -0.96293408
vn 1.7078253 -1.0202049 -99.980209
vn -99.929985 3.3116138 -1.7407593
vn 99.929985 -3.3116138 1.7407593
vn 1.7078252 -1.0202048 -99.980202
vn 3.3287177 99.939934 -0.96293402
vn -3.3287177 -99.939934 0.96293402
vn -1.7078252 1.0202048 99.980202
vn 99.339592 -11.329498 1.8124895
vn -99.339607 11.329455 -1.8124893
vn 2.4140208 21.527426 -97.625526
vn -2.4140208 -21.527428 97.625519
vn -9.0151711 -99.48423 -4.6490169
vn 99.915489 -3.3508339 -2.3798661
vn -99.915497 3.3508341 2.3798661
vn 3.1269059 99.475525 9.7387753
vn -99.915504 3.3508341 2.3798642
vn 99.915497 -3.3508341 -2.3798652
vn -1.7078207 1.0202048 99.980209
vn 3.1269052 99.475517 9.7388048
vn 0.60725594 -99.878922 -4.881752
vn -2.4140208 -21.527426 97.625526
vn 2.414021 21.527431 -97.625526
vn -3.328717 -99.939941 0.9628818
vn -99.929977 3.3116136 -1.7407591
vn -99.915489 3.3508339 2.3798661
vn 99.915504 -3.3508341 -2.3798642
vn -1.7078694 1.0202063 99.980209
vn 1.707866 -1.0202062 -99.980209
vn 2.4140208 21.527428 -97.625519
vn 3.126905 99.47551 9.7388058
vn -1.7078323 1.0202051 99.980209
vn -3.3154173 -99.944847 0.19007462
vn -2.414021 -21.527431 97.625526
vn -3.3287189 -99.939941 0.96298635
vn 3.328717 99.939941 -0.96287966
vn 1.7078158 -1.0202045 -99.980209
vn 66.815475 -74.37796 1.9002753
vn -70.691788 70.703247 -1.9289918
vn 72.905777 68.443024 0.54695255
vn -74.000847 -67.257263 -0.57775772
vn 99.933487 -3.3138416 1.5216284
vn 1.7078182 -1.0202047 -99.980209
vn 2.2325342 90.119919 43.282982
vn -99.933487 3.3138416 -1.5216289
vn -2.2325487 -90.120125 -43.282539
vn -69.481987 -63.981529 -32.842323
vn 68.317253 64.995216 33.292244
vn -99.339592 11.329498 -1.8124895
vn 99.339592 -11.32946 1.8124892
vn 99.339607 -11.329455 1.8124893
vn -99.339592 11.329502 -1.8124895
vn 99.929977 -3.3116136 1.7407591
vn 71.803719 7.5486169 -69.189911
vn -74.467461 -6.6355882 66.412086
vn 3.3287177 99.939941 -0.9629162
vn 67.385544 -23.079071 70.189346
vn -69.560631 22.854164 -68.11026
vn 3.3287179 99.939934 -0.9629519
vn -71.897087 1.725216 -69.48259
vn 69.731712 -1.6321361 71.657677
vn 3.5629845 70.047295 -71.278885
vn -3.5879753 -71.647888 69.668549
vn -3.5879755 -71.647919 69.66851
vn 1.1656162 71.771309 69.62413
vn -1.2173331 -72.777946 -68.570305
vn 99.929985 -3.3116076 1.7407593
vn 3.5629864 70.047394 -71.278793
vn 69.731583 -1.6321304 71.657806
vn -71.896919 1.7252084 -69.482773
vn 71.345863 14.297707 -68.595505
vn 71.855721 -3.0627537 -69.479294
vn -74.497849 3.1233568 66.635696
vn 99.92556 -3.4417071 1.7420112
vn -1.2173327 -72.777939 -68.570312
vn 1.1656158 71.771301 69.624138
vn -3.587975 -71.647881 69.668556
vn 3.5629845 70.047295 -71.278893
vn 3.562984 70.047241 -71.278961
vn -70.370049 70.872414 5.0155392
vn 66.622353 -74.069984 -8.6660023
vn 99.92852 -3.3107574 1.8245833
vn 72.617775 68.728699 1.7389793
vn -73.847282 -67.234344 -5.1107879
vn -99.925575 3.4414494 -1.7420088
vn -74.012024 -13.5621 65.865677
vn -2.4642367 -23.251669 97.22802
vn 2.4642348 23.251612 -97.228027
vn -1.7078276 1.020205 99.980209
vn -2.9841087 -98.616982 -16.302904
vn 2.9841151 98.617035 16.302635
vn -99.92852 3.3107574 -1.8245832
vn 66.506454 -73.92382 -10.590529
vn -70.397896 70.327805 9.9063463
vn -99.929977 3.3116043 -1.740759
vn -3.5879755 -71.647911 69.668526

# Mesh 'Cube' with 270 faces
g Cube
usemtl Material
f  1//1 2//1 3//1 4//1
f  5//2 6//2 7//2 8//2
f  9//3 10//3 11//3 12//3
f  13//4 14//4 15//4 16//4
f  17//5 18//5 19//5 20//5
f  21//6 22//6 23//6 24//6
f  25//1 26//1 27//1 28//1
f  29//6 30//6 31//6 32//6
f  33//6 6//6 26//6 25//6
f  34//6 14//6 35//6 36//6
f  37//6 38//6 39//6 40//6
f  41//7 22//7 42//7 43//7
f  44//4 2//4 45//4 46//4
f  47//7 10//7 38//7 37//7
f  48//4 49//4 50//4 51//4
f  46//8 45//8 52//8 53//8
f  16//5 15//5 50//5 49//5
f  43//1 42//1 54//1 55//1
f  56//6 57//6 58//6 59//6
f  36//8 35//8 58//8 57//8
f  24//2 23//2 60//2 61//2
f  32//4 31//4 62//4 63//4
f  4//6 3//6 64//6 65//6
f  66//1 18//1 67//1 68//1
f  69//1 14//1 70//1 71//1
f  72//1 30//1 73//1 74//1
f  75//9 76//9 77//9 78//9
f  68//4 67//4 79//4 80//4
f  71//10 70//10 81//10 82//10
f  74//5 73//5 77//5 76//5
f  83//9 84//9 85//9 86//9
f  87//5 10//5 84//5 83//5
f  88//5 2//5 89//5 90//5
f  91//5 92//5 93//5 94//5
f  95//5 86//5 85//5 96//5
f  20//3 19//3 97//3 98//3
f  90//2 89//2 99//2 100//2
f  94//4 93//4 101//4 102//4
f  103//11 104//11 105//11 106//11
f  107//3 92//3 104//3 103//3
f  108//3 22//3 109//3 110//3
f  111//3 6//3 112//3 113//3
f  114//3 115//3 116//3 117//3
f  110//12 109//12 116//12 115//12
f  113//13 112//13 118//13 119//13
f  12//14 11//14 120//14 121//14
f  122//15 123//15 124//15 125//15
f  126//2 30//2 127//2 128//2
f  129//2 92//2 123//2 122//2
f  130//2 18//2 131//2 132//2
f  133//2 134//2 135//2 136//2
f  132//16 131//16 137//16 138//16
f  8//17 7//17 135//17 134//17
f  128//18 127//18 139//18 140//18
f  141//19 8//19 134//19 142//19
f  123//20 143//20 144//20 124//20
f  145//21 142//21 134//21 133//21
f  92//2 91//2 143//2 123//2
f  146//4 94//4 102//4 147//4
f  84//2 148//2 96//2 85//2
f  149//5 95//5 96//5 100//5
f  130//5 91//5 94//5 146//5
f  10//5 47//5 148//5 84//5
f  26//4 150//4 151//4 27//4
f  152//2 24//2 61//2 59//2
f  153//6 154//6 61//6 60//6
f  42//5 155//5 156//5 54//5
f  55//4 54//4 156//4 157//4
f  88//4 47//4 37//4 158//4
f  158//6 37//6 40//6 159//6
f  6//6 5//6 150//6 26//6
f  13//6 21//6 24//6 152//6
f  22//7 21//7 155//7 42//7
f  29//2 5//2 8//2 141//2
f  160//4 55//4 157//4 161//4
f  162//2 145//2 133//2 163//2
f  164//22 128//22 140//22 165//22
f  163//2 133//2 136//2 125//2
f  6//2 111//2 166//2 7//2
f  66//2 126//2 128//2 164//2
f  7//23 166//23 136//23 135//23
f  109//24 167//24 117//24 116//24
f  168//25 113//25 119//25 169//25
f  170//3 114//3 117//3 121//3
f  129//3 111//3 113//3 168//3
f  171//2 71//2 82//2 172//2
f  73//7 173//7 78//7 77//7
f  174//1 75//1 78//1 80//1
f  44//26 69//26 71//26 171//26
f  30//1 126//1 173//1 73//1
f  175//9 43//9 55//9 160//9
f  15//3 176//3 51//3 50//3
f  177//4 48//4 51//4 53//4
f  14//4 69//4 176//4 15//4
f  9//4 41//4 43//4 175//4
f  22//3 41//3 167//3 109//3
f  161//4 157//4 48//4 177//4
f  165//2 140//2 145//2 162//2
f  30//2 29//2 141//2 127//2
f  14//6 13//6 152//6 35//6
f  45//6 158//6 159//6 52//6
f  2//4 88//4 158//4 45//4
f  35//2 152//2 59//2 58//2
f  18//5 130//5 146//5 19//5
f  178//27 149//27 100//27 99//27
f  19//4 146//4 147//4 97//4
f  140//10 139//10 142//10 145//10
f  127//28 141//28 142//28 139//28
f  143//29 132//29 138//29 144//29
f  91//30 130//30 132//30 143//30
f  148//2 90//2 100//2 96//2
f  47//5 88//5 90//5 148//5
f  150//4 32//4 63//4 151//4
f  154//6 56//6 59//6 61//6
f  155//5 16//5 49//5 156//5
f  157//4 156//4 49//4 48//4
f  5//6 29//6 32//6 150//6
f  21//31 13//31 16//31 155//31
f  137//2 165//2 162//2 138//2
f  40//4 161//4 177//4 159//4
f  10//4 9//4 175//4 38//4
f  159//4 177//4 53//4 52//4
f  38//9 175//9 160//9 39//9
f  2//1 44//1 171//1 3//1
f  179//1 174//1 80//1 79//1
f  3//2 171//2 172//2 64//2
f  92//3 129//3 168//3 104//3
f  180//3 170//3 121//3 120//3
f  104//32 168//32 169//32 105//32
f  18//10 66//10 164//10 131//10
f  144//2 163//2 125//2 124//2
f  131//33 164//33 165//33 137//33
f  138//34 162//34 163//34 144//34
f  39//4 160//4 161//4 40//4
f  111//2 129//2 122//2 166//2
f  166//35 122//35 125//35 136//35
f  167//36 12//36 121//36 117//36
f  173//4 68//4 80//4 78//4
f  126//37 66//37 68//37 173//37
f  176//8 46//8 53//8 51//8
f  69//4 44//4 46//4 176//4
f  41//38 9//38 12//38 167//38
f  43//39 42//39 155//39 46//39 45//39 158//39
f  46//40 155//40 156//40 53//40
f  43//41 158//41 159//41 55//41
f  175//42 160//42 49//42 16//42
f  37//43 176//43 51//43 40//43
f  38//44 37//44 181//44 182//44
f  181//45 182//45 183//45 184//45 185//45 186//45
f  176//46 15//46 185//46 186//46
f  15//47 16//47 184//47 185//47
f  175//48 38//48 182//48 183//48
f  37//49 181//49 186//49 176//49
f  16//50 184//50 183//50 175//50
f  105//3 169//3 187//3 106//3
f  65//9 188//9 174//9 179//9
f  151//6 63//6 189//6 190//6
f  97//5 147//5 191//5 98//5
f  188//9 192//9 75//9 174//9
f  169//3 119//3 193//3 187//3
f  27//6 151//6 190//6 28//6
f  147//5 102//5 194//5 191//5
f  112//51 195//51 196//51 118//51
f  119//3 118//3 196//3 193//3
f  6//3 33//3 195//3 112//3
f  87//3 107//3 103//3 197//3
f  197//52 103//52 106//52 180//52
f  198//3 20//3 98//3 178//3
f  102//5 101//5 199//5 194//5
f  92//5 107//5 200//5 93//5
f  93//1 200//1 199//1 101//1
f  201//27 74//27 76//27 202//27
f  192//1 202//1 76//1 75//1
f  34//1 72//1 74//1 201//1
f  67//6 203//6 179//6 79//6
f  31//3 204//3 205//3 62//3
f  63//6 62//6 205//6 189//6
f  30//6 72//6 204//6 31//6
f  108//6 33//6 25//6 206//6
f  206//1 25//1 28//1 153//1
f  1//27 17//27 20//27 198//27
f  18//1 17//1 203//1 67//1
f  2//5 1//5 198//5 89//5
f  23//9 206//9 153//9 60//9
f  22//6 108//6 206//6 23//6
f  14//1 34//1 201//1 70//1
f  82//1 81//1 202//1 192//1
f  70//5 201//5 202//5 81//5
f  89//8 198//8 178//8 99//8
f  11//53 197//53 180//53 120//53
f  10//3 87//3 197//3 11//3
f  172//9 82//9 192//9 188//9
f  64//1 172//1 188//1 65//1
f  106//3 187//3 170//3 180//3
f  190//6 189//6 56//6 154//6
f  98//5 191//5 149//5 178//5
f  187//8 193//8 114//8 170//8
f  28//6 190//6 154//6 153//6
f  191//5 194//5 95//5 149//5
f  195//54 110//54 115//54 196//54
f  193//3 196//3 115//3 114//3
f  33//3 108//3 110//3 195//3
f  194//5 199//5 86//5 95//5
f  107//27 87//27 83//27 200//27
f  200//1 83//1 86//1 199//1
f  203//55 4//55 65//55 179//55
f  204//3 36//3 57//3 205//3
f  189//6 205//6 57//6 56//6
f  72//6 34//6 36//6 204//6
f  17//1 1//1 4//1 203//1
f  12//56 195//56 196//56 121//56
f  197//57 180//57 119//57 113//57
f  12//58 11//58 197//58 113//58 112//58 195//58
f  110//59 168//59 169//59 115//59
f  167//60 117//60 106//60 103//60
f  103//5 104//5 207//5 208//5
f  209//61 210//61 211//61 212//61 208//61 207//61
f  109//4 167//4 212//4 211//4
f  110//6 109//6 211//6 210//6
f  104//2 168//2 209//2 207//2
f  167//62 103//62 208//62 212//62
f  168//63 110//63 210//63 209//63
f  25//64 152//64 59//64 28//64
f  36//65 150//65 151//65 57//65
f  150//66 36//66 213//66 214//66
f  206//67 153//67 63//67 32//67
f  24//68 204//68 205//68 61//68
f  24//6 23//6 206//6 32//6 31//6 204//6
f  214//69 213//69 215//69 216//69 217//69 218//69
f  152//70 25//70 217//70 216//70
f  25//3 26//3 218//3 217//3
f  35//4 152//4 216//4 215//4
f  36//1 35//1 215//1 213//1
f  26//2 150//2 214//2 218//2
f  201//71 202//71 80//71 68//71
f  71//72 203//72 179//72 82//72
f  171//73 74//73 219//73 220//73
f  74//74 171//74 172//74 76//74
f  4//75 173//75 78//75 65//75
f  74//76 73//76 221//76 219//76
f  20//77 148//77 96//77 98//77
f  83//78 146//78 147//78 86//78
f  146//5 83//5 84//5 148//5 20//5 19//5
f  198//79 178//79 102//79 94//79
f  90//80 200//80 199//80 100//80
f  200//81 90//81 222//81 223//81
f  136//82 138//82 132//82 166//82
f  165//83 134//83 8//83 164//83
f  8//84 7//84 224//84 225//84
f  142//85 125//85 122//85 141//85
f  144//86 140//86 128//86 143//86
f  141//10 122//10 123//10 143//10 128//10 127//10
f  4//87 3//87 226//87 227//87
f  71//1 70//1 201//1 68//1 67//1 203//1
f  173//88 4//88 227//88 228//88
f  73//89 173//89 228//89 221//89
f  3//90 171//90 220//90 226//90
f  225//91 224//91 229//91 230//91 231//91 232//91
f  131//92 164//92 232//92 231//92
f  7//93 166//93 229//93 224//93
f  132//94 131//94 231//94 230//94
f  164//95 8//95 225//95 232//95
f  166//96 132//96 230//96 229//96
f  233//97 234//97 223//97 222//97 235//97 236//97
f  198//98 94//98 233//98 236//98
f  93//3 200//3 223//3 234//3
f  89//1 198//1 236//1 235//1
f  94//2 93//2 234//2 233//2
f  90//4 89//4 235//4 222//4
f  228//1 227//1 226//1 220//1 219//1 221//1

